REM DATE 2013
REM DISCID 123456789
REM COMMENT "ExactAudioCopy v0.99pb4"
PERFORMER "Artist"
FILE "Garbage1.wav" WAVE
  TRACK 01 AUDIO
    TITLE "Song01"
    INDEX 01 00:00:00

  TRACK 02 AUDIO
    TITLE "Song01"
    INDEX 01 00:10:00


FILE "Garbage2.wav" WAVE
  TRACK 03 AUDIO
    TITLE "Song01"
    INDEX 01 00:00:00
